<?xml version="1.0"?>
<svg width="1280" height="1101" xmlns="http://www.w3.org/2000/svg" xmlns:svg="http://www.w3.org/2000/svg" preserveAspectRatio="xMidYMid meet">
 <metadata>Created by potrace 1.15, written by Peter Selinger 2001-2017</metadata>
 <g class="layer">
  <title>Layer 1</title>
  <g fill="#000000" id="svg_1" transform="translate(0.000000,1101.000000) scale(0.100000,-0.100000)">
   <path d="m6045,10998c-54,-31 -61,-93 -16,-139c33,-33 50,-35 90,-14c40,20 55,66 37,110c-22,51 -67,68 -111,43z" fill="#ffffff" id="svg_2"/>
   <path d="m5706,10974c-37,-37 -35,-86 3,-125c33,-33 50,-35 91,-14c40,21 57,73 35,114c-29,57 -86,68 -129,25z" fill="#ffffff" id="svg_3"/>
   <path d="m6504,10879c-49,-26 -99,-48 -111,-49c-26,0 -73,-20 -73,-31c0,-4 -14,-17 -30,-29l-31,-22l-26,26c-14,14 -35,26 -46,26c-11,0 -35,5 -53,12c-26,9 -39,9 -61,-2c-15,-8 -48,-13 -73,-11c-37,2 -49,-2 -69,-23c-20,-21 -23,-33 -19,-69l5,-44l-28,16c-23,13 -34,14 -58,4c-28,-10 -31,-9 -31,9c0,77 -86,115 -142,61c-22,-21 -31,-24 -40,-15c-7,7 -27,12 -45,12c-28,0 -37,6 -54,35c-37,62 -89,73 -133,29c-34,-35 -35,-82 -1,-122c14,-17 25,-34 25,-39c0,-20 49,-55 81,-58c19,-2 48,-9 65,-16c28,-11 36,-10 58,5c26,17 27,17 21,-6c-8,-31 12,-118 31,-139c14,-15 13,-19 -8,-33c-21,-15 -23,-15 -31,6c-25,68 -94,89 -137,43c-13,-14 -33,-25 -45,-25c-22,0 -75,-44 -75,-62c0,-6 -11,-23 -25,-40c-14,-16 -25,-40 -25,-53c0,-29 -28,-46 -59,-38c-21,5 -21,6 9,31c17,15 30,34 30,48c0,25 -30,47 -52,39c-9,-4 -19,4 -26,20c-9,18 -19,25 -41,25c-16,0 -33,-5 -36,-10c-3,-6 -17,-7 -31,-4c-18,5 -32,0 -49,-16c-24,-22 -26,-22 -44,-6c-16,15 -33,17 -107,13c-76,-4 -90,-8 -106,-27c-10,-13 -16,-31 -13,-40c5,-15 0,-18 -27,-17c-26,2 -36,8 -48,32c-17,35 -53,44 -79,21c-25,-23 -86,-11 -100,20c-14,32 -56,42 -81,19c-27,-25 -25,-55 8,-100c20,-29 38,-41 74,-50c26,-6 53,-8 61,-3c11,6 16,-2 20,-39c3,-32 12,-52 27,-63l21,-16l-26,-14c-14,-7 -29,-26 -33,-41c-5,-21 -11,-26 -21,-20c-12,8 -12,12 2,26c31,31 16,95 -22,95c-8,0 -27,12 -43,27c-37,36 -83,36 -115,-1c-25,-30 -31,-84 -11,-104c9,-9 9,-15 0,-24c-7,-7 -12,-22 -12,-34c0,-34 -33,-35 -47,-2c-7,17 -22,30 -40,33c-15,4 -39,11 -53,16c-24,11 -24,11 29,60c40,37 52,54 49,72c-1,13 3,32 11,41c30,36 6,96 -39,96c-22,0 -47,-29 -52,-60c-3,-22 -7,-25 -35,-22c-43,4 -72,-13 -89,-53c-15,-38 -6,-80 23,-102c14,-11 12,-12 -13,-11c-16,1 -41,-2 -56,-6c-24,-7 -28,-5 -28,13c0,34 -48,73 -87,69c-24,-2 -40,5 -60,24c-19,18 -35,26 -49,22c-15,-4 -23,3 -37,34c-21,47 -60,68 -99,53c-34,-13 -58,-48 -58,-84c0,-59 -33,-22 -115,131c-45,84 -84,155 -87,157c-5,5 -320,-89 -339,-100c-5,-4 -9,-24 -9,-46c0,-26 -4,-38 -11,-34c-16,11 -57,-3 -79,-27c-22,-24 -27,-87 -8,-106c9,-9 -5,-19 -60,-43c-47,-21 -72,-38 -71,-48c0,-9 10,-61 22,-116c20,-88 25,-100 42,-97c11,2 44,5 74,7c42,2 59,7 73,25c18,22 18,22 12,-23c-6,-42 -4,-49 24,-76c35,-35 66,-39 101,-12c25,19 61,17 61,-3c0,-6 6,-22 13,-36c26,-50 27,-59 7,-70c-15,-8 -24,-6 -40,10c-12,12 -29,20 -38,18c-10,-2 -24,8 -34,24c-13,21 -26,28 -48,28c-47,0 -67,-55 -33,-93c17,-18 17,-19 0,-28c-43,-24 -41,-90 3,-104c30,-10 70,19 70,51c0,21 3,23 18,15c10,-5 18,-20 19,-32c3,-32 32,-51 66,-45c24,5 27,3 27,-23c0,-22 -6,-30 -25,-35c-50,-13 -42,-106 9,-106c13,0 46,9 72,21c62,26 93,19 92,-21c-1,-37 17,-60 48,-60c13,0 34,-11 48,-25c31,-31 85,-34 110,-6c10,11 24,17 31,15c7,-3 23,0 35,6c19,10 20,9 14,-14c-6,-26 -5,-26 50,-26c48,0 56,-3 56,-19c0,-10 9,-30 21,-45c16,-20 29,-26 59,-26c30,0 43,6 59,26c12,15 21,37 21,49c0,25 30,35 106,35c43,0 43,-1 32,-25c-15,-33 6,-81 43,-100c40,-21 57,-19 90,14c33,33 38,74 13,109c-14,21 -14,23 12,32c33,13 41,10 99,-32l44,-33l-6,-99l-6,-99l119,6c65,4 171,9 234,13l115,6l246,-196l246,-197l17,-162c10,-89 20,-181 23,-205c5,-38 4,-42 -13,-35c-28,11 -63,55 -64,81c-1,63 -95,95 -139,48c-26,-28 -31,-87 -10,-113c16,-19 13,-66 -8,-111c-9,-21 -13,-46 -9,-67c7,-36 -11,-60 -37,-49c-8,3 -18,1 -22,-5c-3,-6 -17,-11 -31,-11c-14,0 -34,-5 -45,-11c-11,-6 2,12 30,38c43,41 51,55 51,85c0,66 -75,111 -125,74c-16,-11 -22,-11 -46,3c-26,15 -30,14 -56,-5l-27,-21l-21,31c-36,54 -114,61 -136,12c-6,-13 -22,-29 -34,-34c-13,-6 -29,-27 -36,-46c-8,-22 -20,-36 -30,-36c-26,0 -43,-28 -44,-70c0,-28 -5,-40 -17,-44c-14,-3 -17,1 -12,18c3,14 -1,27 -10,35c-14,12 -14,15 1,37c10,16 14,36 10,57c-5,30 -2,35 24,44c29,11 49,46 49,84c0,31 -53,79 -88,79c-49,0 -77,-31 -77,-84c0,-39 -3,-46 -23,-51c-12,-3 -28,-17 -34,-30c-7,-16 -19,-25 -34,-25c-13,0 -36,-11 -51,-24l-28,-25l-22,21c-56,52 -133,7 -133,-78c0,-40 -2,-44 -25,-44c-29,0 -31,7 -8,32c52,58 -19,166 -91,138c-21,-7 -30,-3 -65,32c-37,35 -46,40 -74,34c-42,-8 -67,-40 -67,-85c0,-30 7,-44 40,-75c22,-21 40,-41 40,-45c0,-4 -45,-2 -101,5c-77,9 -106,17 -123,33c-26,25 -72,27 -96,6c-20,-18 -374,-65 -493,-65c-43,0 -88,-5 -100,-12c-30,-17 -422,-64 -477,-58c-36,4 -47,10 -57,31c-32,66 -98,83 -140,35c-30,-35 -30,-85 0,-123c13,-15 24,-39 25,-52c2,-34 16,-44 57,-43c26,1 34,-2 28,-11c-4,-7 -17,-39 -28,-72c-18,-52 -24,-60 -52,-66c-28,-5 -32,-3 -37,22c-4,19 -13,30 -30,35c-16,4 -22,11 -19,23c2,9 -4,28 -15,41c-14,18 -25,22 -45,16c-49,-12 -48,-87 2,-94c17,-3 20,-8 15,-27c-7,-28 28,-69 54,-61c12,3 24,-6 39,-30c22,-33 22,-36 6,-75l-16,-40l-26,25c-36,34 -83,35 -116,1c-28,-28 -33,-79 -11,-111c12,-17 12,-22 0,-39c-33,-44 -6,-113 52,-135c19,-8 24,-17 24,-46c0,-67 75,-115 125,-80c22,15 195,30 195,17c0,-14 57,-33 80,-26c11,4 29,15 39,26c14,16 29,19 63,17l45,-3l-113,-264c-63,-146 -112,-266 -111,-268c2,-1 79,82 172,185c155,172 174,190 243,225l75,39l29,-36c21,-25 38,-36 57,-36c17,0 36,-10 49,-25c45,-51 113,-40 139,23c13,31 12,38 -5,73l-19,39l26,0c102,0 455,26 770,57c374,36 374,36 391,16c19,-23 52,-43 74,-43c8,0 28,12 45,26c17,14 31,21 31,15c0,-14 53,-41 80,-41c12,0 35,14 50,30c15,17 33,30 39,30c29,0 384,-151 516,-220c137,-71 176,-86 435,-164c157,-47 343,-110 414,-140l128,-54l39,-68c21,-38 39,-79 39,-91c0,-12 5,-25 11,-29c6,-3 18,-23 27,-43c13,-30 16,-85 17,-318l1,-283l-24,-22c-13,-13 -56,-58 -94,-101l-71,-78l56,-83l55,-83l-42,-42l-43,-42l-6,-211c-4,-116 -8,-212 -10,-214c-1,-1 -53,-16 -115,-32c-98,-27 -113,-28 -106,-14c35,78 -63,164 -125,108c-28,-25 -82,-5 -165,63c-41,33 -83,61 -93,61c-11,0 -30,11 -43,25c-33,35 -91,35 -119,-1c-12,-15 -21,-37 -21,-50c0,-21 -5,-24 -42,-24c-24,0 -49,-7 -60,-16c-14,-14 -20,-14 -33,-4c-9,8 -28,10 -52,6c-62,-10 -95,-7 -109,11c-10,14 -9,22 7,42c45,56 6,141 -64,141c-67,0 -108,-89 -63,-139c18,-19 18,-21 1,-38c-31,-31 -81,-43 -106,-26c-14,10 -34,14 -60,10c-38,-5 -39,-4 -39,25c0,44 -51,92 -90,84c-17,-3 -41,0 -55,6c-29,13 -80,-4 -96,-33c-12,-22 -29,-25 -29,-5c0,21 -49,76 -68,76c-10,0 -57,50 -107,111l-90,111l-7,-95c-6,-83 -10,-98 -33,-123c-20,-22 -26,-37 -23,-61c2,-20 0,-33 -7,-33c-6,0 -22,-11 -35,-25c-22,-23 -68,-36 -56,-16c4,5 1,22 -6,38c-6,15 -10,49 -9,75c2,39 -2,51 -23,73c-26,26 -64,32 -96,15c-25,-13 -70,-90 -70,-118c0,-30 -29,-28 -55,4c-18,22 -35,29 -122,51c-25,6 -63,-27 -63,-56c0,-10 -9,-39 -20,-64l-20,-45l-38,16c-33,14 -37,19 -37,54c0,30 4,38 18,38c25,0 77,53 77,78c0,12 11,24 30,32c32,13 60,55 60,89c0,11 -12,33 -26,50c-36,43 -82,43 -118,0c-14,-17 -26,-39 -26,-50c0,-11 -7,-19 -16,-19c-8,0 -29,-13 -46,-30c-18,-19 -40,-30 -57,-30c-15,0 -33,-6 -39,-12c-10,-10 -17,-10 -32,0c-36,22 -76,15 -104,-19c-14,-17 -26,-36 -26,-43c0,-23 -124,-3 -143,24c-15,22 -53,42 -75,39c-33,-3 -40,1 -52,31c-31,74 -112,81 -148,13c-18,-32 -15,-67 8,-96c23,-29 26,-72 6,-80c-8,-3 -24,5 -37,19c-27,29 -60,31 -84,4c-10,-11 -21,-20 -25,-20c-15,0 -18,84 -4,96c37,30 33,92 -8,118c-28,17 -71,-4 -83,-42c-5,-17 -15,-32 -22,-32c-7,0 -21,-9 -30,-20c-10,-11 -27,-20 -38,-20c-12,0 -26,-5 -33,-12c-9,-9 -15,-9 -24,0c-21,21 -55,13 -81,-18c-14,-16 -30,-30 -36,-30c-5,0 -17,-7 -25,-15c-13,-13 -19,-14 -38,-3l-23,13l25,3c56,6 70,14 86,43c9,18 14,42 11,55c-2,13 2,29 9,35c34,28 -1,109 -46,109c-21,0 -60,-28 -60,-44c0,-7 -13,-25 -30,-39c-31,-28 -46,-66 -36,-92c4,-11 -1,-15 -19,-15c-17,0 -29,9 -40,30c-32,61 -115,43 -115,-25c0,-18 6,-40 12,-47c7,-8 18,-23 24,-33c6,-11 23,-26 37,-33c15,-7 27,-18 27,-24c0,-7 -5,-6 -14,2c-8,6 -28,10 -43,9c-15,-2 -37,2 -47,8c-25,14 -54,5 -62,-19c-3,-10 -11,-17 -17,-15c-12,4 -13,7 -15,68c-2,42 -33,79 -67,79c-17,0 -25,6 -25,18c0,45 -50,56 -76,17c-15,-23 -15,-27 0,-50c9,-14 22,-25 29,-25c8,0 13,-15 14,-40c2,-39 2,-40 -21,-25c-26,17 -68,8 -83,-19c-12,-21 -63,-9 -63,15c0,22 -32,41 -55,33c-8,-4 -20,-15 -26,-26c-13,-25 11,-65 43,-71c13,-2 0,-5 -27,-6c-45,-1 -51,1 -52,21c-2,25 -19,38 -51,38c-17,0 -27,-8 -35,-30c-9,-25 -17,-30 -44,-30c-31,0 -33,2 -33,35c0,40 -28,62 -59,46c-10,-6 -34,-8 -54,-4c-28,4 -38,2 -43,-11c-8,-20 -46,-20 -132,-2l-62,14l-51,-45c-27,-25 -52,-43 -55,-40c-3,3 4,10 15,17c25,13 28,58 5,67c-8,3 -27,0 -41,-6c-20,-9 -24,-17 -21,-40c3,-23 -1,-32 -23,-45c-15,-9 -35,-35 -44,-58c-16,-40 -18,-42 -27,-21c-12,24 -61,49 -78,38c-6,-4 -19,4 -30,18c-29,37 -78,57 -106,45c-13,-6 -26,-20 -30,-32c-3,-12 -15,-31 -27,-43l-20,-22l-25,20c-14,11 -27,27 -28,35c-6,43 -49,57 -77,26c-21,-23 -22,-46 -1,-67c11,-11 16,-35 16,-87c1,-85 17,-108 75,-108c37,0 38,-1 13,-13c-20,-10 -30,-10 -53,1c-23,12 -31,11 -59,-3c-19,-9 -43,-13 -58,-10c-22,5 -26,10 -23,33c6,36 -30,74 -64,70c-15,-2 -35,-15 -46,-30c-18,-24 -18,-30 -7,-58c9,-21 22,-33 41,-37c24,-5 28,-9 23,-28c-12,-46 39,-94 79,-73c10,5 17,5 17,-1c0,-5 -48,-35 -106,-66c-84,-44 -113,-55 -135,-50c-41,9 -65,-2 -79,-35c-10,-25 -10,-34 4,-55c23,-35 42,-41 83,-26c48,18 121,-2 134,-36c5,-13 20,-29 34,-35c22,-10 32,-9 60,6c28,15 39,17 66,7c18,-6 47,-11 65,-11c19,0 34,-1 34,-3c0,-10 -48,-97 -67,-121c-30,-37 -30,-87 -1,-121c42,-48 109,-32 141,34c10,20 22,27 56,32c53,7 81,36 81,84c0,18 -8,43 -19,56l-19,24l94,-6c89,-6 94,-7 119,-38c21,-24 35,-31 62,-31c23,0 45,-9 65,-25c16,-14 36,-25 44,-25c8,0 14,-9 14,-21c0,-11 5,-30 12,-42c40,-76 137,-56 154,31c5,27 11,32 34,32c15,0 35,9 44,19c14,16 23,18 42,11c49,-19 106,26 106,84c0,21 7,41 19,52c11,10 19,30 19,49c0,20 6,35 15,39c29,11 41,-3 37,-44c-8,-78 85,-122 138,-65c29,31 81,34 109,6c17,-17 18,-24 9,-49c-21,-56 18,-122 73,-122c41,0 81,39 84,81c1,19 8,45 15,58c6,13 10,36 8,51c-4,23 0,29 19,33c13,2 23,1 23,-3c0,-19 55,-60 81,-60c18,0 29,-5 29,-14c0,-8 12,-28 26,-45c31,-37 79,-42 112,-11c24,23 37,62 28,85c-3,9 7,23 30,39l35,23l29,-28c44,-45 96,-36 125,21c19,36 27,37 40,8c7,-16 19,-23 40,-25c17,0 36,-2 42,-2c8,-1 6,-8 -7,-21c-11,-11 -20,-24 -20,-29c0,-17 53,-116 69,-128c22,-17 73,-16 96,1c12,8 32,12 51,9c20,-3 40,0 54,10c20,14 26,13 67,-8c24,-13 50,-22 58,-19c7,3 23,1 34,-5c44,-24 92,26 78,81c-5,16 4,30 36,59c40,37 65,50 52,29c-4,-6 1,-24 9,-42c9,-17 16,-39 16,-48c0,-30 34,-62 64,-62c37,-1 60,24 58,62c-3,40 -3,55 -1,85l1,25l30,-25c16,-14 34,-25 39,-25c5,0 9,-6 9,-13c0,-20 33,-47 58,-47c29,0 62,34 62,63c0,12 -8,33 -17,47c-9,13 -18,35 -19,49c-3,22 2,28 32,38c32,9 39,8 56,-9c15,-15 28,-18 53,-14c27,5 49,-1 105,-29c38,-19 70,-38 70,-42c0,-4 -5,-21 -11,-38c-10,-26 -9,-38 5,-65c9,-18 16,-40 16,-49c0,-9 9,-31 20,-48c19,-32 19,-33 1,-76l-19,-44l41,-32c22,-17 48,-31 58,-31c10,0 19,-11 23,-25c10,-39 53,-51 87,-25c16,11 31,20 33,20c3,0 12,-15 20,-33c19,-47 68,-67 108,-44c22,12 35,14 54,6c23,-8 33,-4 82,38c40,34 57,44 60,33c3,-7 15,-24 28,-37c52,-52 134,-11 134,66c0,22 -4,42 -9,45c-5,3 -4,21 3,40c9,25 37,55 99,105c80,64 91,69 123,64c27,-4 42,-1 64,15l29,22l6,-21c10,-30 61,-49 97,-37c27,10 58,52 58,81c0,11 17,11 103,0c56,-7 103,-12 104,-13c0,0 -1,-8 -4,-19c-6,-24 21,-77 46,-91c11,-5 29,-10 41,-10c28,0 80,52 80,80c0,17 5,21 27,18c26,-3 29,-9 47,-83l19,-80l-50,-290l-49,-289l-139,-89l-140,-90l-92,-122l-91,-122l-8,-162c-4,-92 -12,-167 -18,-175c-6,-7 -50,-41 -99,-75l-87,-61l-236,0l-237,0l-176,-41l-176,-42l-175,38c-96,21 -178,38 -181,39c-23,4 -584,-409 -595,-438c-3,-7 22,-104 55,-217c33,-112 63,-218 67,-236c5,-27 -8,-63 -81,-218c-49,-102 -86,-186 -84,-188c2,-2 65,-30 140,-61l136,-58l67,-146c57,-124 66,-150 56,-166c-7,-10 -60,-75 -118,-143l-107,-124l-77,-212c-43,-117 -78,-215 -78,-219c0,-5 41,-8 91,-8c80,0 90,-2 79,-15c-17,-21 -7,-40 41,-75c35,-25 48,-29 78,-24c37,7 131,52 131,64c0,3 -16,14 -36,24c-20,9 -35,18 -33,19c2,2 263,0 579,-4c316,-4 698,-7 848,-8c185,-1 272,-4 272,-12c0,-22 54,-79 98,-104c43,-24 50,-25 97,-14c54,13 87,27 149,67l40,25l-30,12c-25,11 11,13 240,14l269,1l-21,-23l-22,-23l33,-31c51,-48 71,-55 119,-42c44,11 118,49 118,60c0,3 -18,14 -40,24c-23,10 -43,21 -45,24c-1,3 101,4 227,2l231,-3l-22,30c-27,38 -27,38 9,57c38,20 38,29 -2,46c-18,7 -52,31 -75,52c-23,21 -46,36 -52,33c-5,-3 -33,27 -62,66c-28,40 -53,74 -54,75c-1,2 -114,21 -251,43c-349,56 -366,59 -369,62c-2,2 -7,28 -11,58l-9,55l-203,135l-203,135l-45,83c-25,45 -44,87 -42,92c2,5 77,75 168,155l165,145l80,0l80,0l54,158c36,102 104,261 199,458l144,301l131,81l132,81l58,228l59,229l180,229c99,127 271,353 381,502c190,257 204,273 234,273c30,0 31,-1 21,-28c-14,-36 -4,-75 24,-102c66,-61 166,26 124,109l-17,31l36,0c19,0 35,-5 35,-10c0,-6 11,-22 25,-35c26,-27 73,-33 93,-13c9,9 12,6 12,-14c0,-41 45,-88 84,-88c85,0 117,116 43,160l-32,20l30,0c17,0 53,3 81,6c49,6 51,5 58,-20c4,-17 19,-33 42,-43c32,-16 38,-16 62,-2c21,11 42,39 58,77c1,2 49,6 107,10l106,7l15,-31c19,-41 61,-57 104,-38c18,7 32,17 32,21c0,4 10,20 23,34c18,21 34,27 84,32c56,6 62,5 68,-13c10,-31 51,-53 85,-46c42,8 37,-7 -8,-27c-30,-13 -68,-17 -165,-17l-127,0l0,-107l0,-108l145,3l144,3l17,-38c10,-21 17,-52 15,-69c-2,-24 4,-37 25,-53c34,-26 49,-26 75,0c15,15 20,30 17,55c-2,19 -2,34 2,34c3,0 23,-51 45,-113l40,-112l128,-3c70,-1 127,1 127,6c0,5 -31,51 -70,102c-73,97 -89,125 -44,76c21,-22 33,-27 58,-23c21,3 63,-8 131,-34c55,-21 104,-39 108,-39c4,0 -40,53 -98,119c-97,110 -105,121 -105,160c0,22 2,41 5,41c3,0 32,-14 65,-30c33,-17 74,-30 92,-30c30,0 33,-3 34,-30c3,-73 99,-109 143,-54c12,15 21,41 21,60l0,33l130,3c72,2 130,1 130,-2c-1,-3 -7,-16 -15,-30c-8,-14 -14,-37 -15,-51c0,-37 42,-79 78,-79c35,0 42,-14 35,-68c-5,-39 -3,-44 41,-86c25,-25 46,-50 46,-55c0,-5 -13,-23 -30,-39c-40,-40 -41,-88 -3,-127c24,-23 34,-26 71,-22c43,5 43,5 65,-42c12,-25 23,-48 24,-50c1,-2 25,10 54,27l53,30l27,-29c46,-49 114,-31 139,37c7,18 17,24 39,24c16,0 36,2 43,5c9,4 18,-7 27,-31c7,-20 25,-43 41,-52c26,-15 27,-17 14,-49c-25,-59 16,-123 79,-123c36,0 77,46 77,85c0,36 -30,80 -60,90c-19,6 -19,8 -5,28c17,25 19,60 5,88c-10,18 -7,19 77,19c48,0 105,-3 126,-6c34,-6 37,-9 37,-39c0,-25 8,-40 31,-59c17,-14 37,-26 45,-26c29,0 74,31 80,55c10,40 84,76 84,41c0,-17 56,-66 75,-66c29,0 65,24 77,52c17,37 46,36 83,-2c39,-41 86,-41 123,-1c20,22 42,32 85,40c53,10 61,9 88,-11c33,-25 32,-23 18,-49c-23,-44 28,-119 81,-119c30,0 80,53 80,84c0,40 -20,74 -51,87c-41,16 -23,33 53,49c67,15 145,17 194,5c24,-5 36,-2 60,18c25,21 62,29 264,62c129,21 256,37 281,36c25,-1 59,5 74,13c16,8 57,18 92,22c34,3 63,10 63,14c0,4 -7,27 -15,50c-15,41 -14,43 2,27c30,-27 65,-29 101,-7c62,39 78,114 32,160c-12,12 -20,33 -20,55c0,52 -38,87 -89,84c-48,-4 -86,24 -117,89c-30,60 -30,59 6,54c23,-3 36,3 60,26c40,41 40,83 1,123c-34,34 -62,37 -101,9c-15,-11 -30,-17 -33,-13c-11,10 -67,5 -83,-8c-11,-9 -21,-9 -44,1c-24,10 -37,10 -56,1c-40,-18 -47,-13 -25,15c12,15 21,40 21,55c0,26 3,29 34,29c25,0 40,7 55,26c46,59 11,144 -59,144c-20,0 -43,-6 -49,-14c-8,-10 -23,-13 -46,-9c-23,4 -43,0 -60,-11c-21,-14 -29,-15 -41,-6c-8,8 -28,10 -51,6c-21,-3 -48,-6 -61,-6c-28,0 -63,-17 -78,-39c-7,-8 -15,-46 -19,-83c-6,-63 -8,-68 -30,-68c-34,0 -37,12 -9,39c34,33 33,89 -2,125c-27,26 -67,34 -93,17c-10,-6 -22,-5 -35,5c-42,29 -109,8 -127,-41c-2,-6 -22,-1 -47,12c-24,12 -38,24 -32,28c5,3 10,24 10,45c0,30 -6,43 -31,64c-34,29 -50,32 -82,14c-30,-16 -46,-39 -47,-66c0,-19 -4,-22 -20,-17c-25,8 -72,-17 -89,-48c-9,-16 -11,-38 -7,-60c6,-30 4,-35 -11,-32c-10,2 -35,7 -56,10l-38,6l31,36c27,30 31,42 27,72c-14,90 -25,132 -41,150c-59,65 -167,-4 -138,-89c19,-52 -21,-134 -62,-128c-13,2 -23,14 -28,35c-15,57 -73,87 -119,62c-17,-8 -23,-7 -35,8c-17,22 -18,41 -2,25c15,-15 72,-16 98,-2c26,14 43,71 31,102c-5,14 -25,41 -44,61c-39,42 -72,47 -108,18c-19,-15 -28,-17 -47,-8c-18,9 -31,7 -57,-8c-28,-14 -37,-16 -50,-5c-15,12 -53,10 -88,-5c-16,-7 -15,-3 4,29c12,20 19,45 16,56c-4,17 0,20 28,20c94,0 116,137 27,171c-26,10 -82,-4 -82,-21c0,-4 -19,-5 -42,-3c-28,3 -50,0 -63,-10c-17,-13 -22,-13 -41,-1c-17,12 -31,12 -65,4c-24,-5 -56,-12 -71,-15c-43,-8 -58,-42 -61,-134c-1,-44 -5,-81 -8,-81c-4,0 -20,-14 -37,-31c-25,-26 -33,-29 -50,-20c-12,6 -30,11 -41,11c-18,0 -19,2 -5,28c7,15 14,33 14,40c0,6 12,12 26,12c15,0 38,12 55,29c39,39 40,88 2,125c-23,23 -34,27 -74,25c-25,-2 -60,3 -76,10c-26,11 -36,10 -62,-3c-17,-9 -31,-20 -31,-24c0,-4 -4,-13 -8,-20c-7,-10 -17,-9 -50,6c-31,14 -38,22 -31,33c19,31 10,70 -27,106c-38,39 -37,43 19,62c46,15 51,12 37,-24c-6,-15 -8,-30 -6,-33c3,-2 38,16 78,41c40,25 89,52 109,60c20,8 40,20 43,26c4,6 19,8 35,5c31,-7 61,16 61,46c0,17 39,50 60,50c5,0 10,-13 10,-28c0,-54 41,-68 80,-27c13,14 28,25 33,25c6,0 19,7 29,17c10,9 18,11 18,5c0,-6 9,-16 20,-22c28,-15 60,4 60,34c0,18 8,27 29,34c16,6 32,19 35,29c6,18 93,73 115,73c7,0 25,10 40,21c35,26 59,17 31,-11c-23,-23 -26,-50 -8,-68c15,-15 51,-15 66,0c14,14 16,54 2,63c-5,3 -1,14 10,25c27,27 25,52 -5,88l-25,30l32,-2c25,-1 35,4 43,22c12,27 32,29 40,3c14,-45 85,-27 85,21c0,11 7,18 18,18c39,0 58,55 27,80c-11,9 -29,10 -75,2c-68,-12 -90,-8 -90,18c0,10 -14,33 -32,50c-26,27 -37,31 -64,27c-26,-4 -34,-2 -39,12c-4,14 -76,77 -133,117c-2,1 1,12 8,24c15,29 4,59 -26,66c-30,8 -54,-11 -54,-41c0,-19 -5,-22 -39,-22c-35,0 -38,2 -25,14c20,20 18,47 -6,68c-17,15 -24,16 -45,7c-14,-6 -25,-18 -25,-26c0,-7 -7,-19 -15,-26c-8,-7 -15,-21 -15,-31c0,-27 -51,-26 -68,1c-14,22 -51,27 -70,8c-9,-9 -12,-7 -12,9c0,28 -25,46 -53,39c-19,-4 -25,0 -33,26c-20,68 -89,85 -137,34c-43,-44 -194,-135 -217,-129c-22,6 -60,-21 -60,-42c0,-7 -7,-18 -15,-25c-13,-10 -19,-10 -33,2c-19,17 -118,23 -127,7c-10,-15 -61,-10 -76,7c-10,12 -22,14 -48,9c-66,-13 -128,-9 -146,8c-9,10 -27,17 -39,17c-18,0 -25,7 -29,29c-7,36 -28,44 -78,31c-33,-9 -41,-16 -46,-41c-4,-21 -10,-28 -22,-25c-65,18 -62,15 -40,37c25,25 24,64 -1,89c-50,50 -127,-4 -100,-71c7,-15 21,-31 32,-35c19,-6 19,-6 -1,-21c-12,-8 -21,-22 -21,-32c0,-10 -7,-24 -15,-31c-12,-10 -16,-9 -21,4c-10,26 -41,38 -64,26c-16,-9 -22,-6 -37,17c-24,38 -32,43 -79,43c-51,0 -80,-27 -70,-65c4,-14 10,-25 15,-25c4,0 17,-8 29,-18c14,-13 18,-23 12,-32c-7,-12 -12,-12 -22,-2c-28,28 -84,-2 -74,-42c3,-16 -4,-26 -27,-41c-20,-13 -34,-32 -38,-50l-7,-30l-1,30c0,17 -8,41 -17,53c-14,20 -14,22 3,22c24,0 91,65 99,96c9,35 -14,82 -48,100c-57,30 -118,-21 -118,-98l0,-33l-19,31l-19,31l-63,-10c-35,-6 -97,-10 -138,-9c-57,2 -79,-2 -92,-14c-10,-9 -36,-20 -58,-24c-35,-6 -43,-4 -62,16c-28,30 -77,31 -113,3l-27,-21l-23,21c-50,47 -136,9 -136,-61c0,-34 22,-68 52,-85c16,-7 11,-14 -31,-45c-43,-32 -49,-42 -56,-85c-9,-63 -12,-66 -35,-43c-11,11 -31,20 -45,20c-22,0 -25,3 -19,25c23,92 -81,155 -140,84c-30,-35 -32,-58 -11,-98c14,-29 66,-58 83,-47c6,4 6,-8 0,-29c-13,-40 -58,-64 -79,-39c-19,24 -77,17 -106,-12c-23,-23 -25,-31 -19,-77c5,-42 0,-69 -25,-144c-17,-51 -34,-93 -38,-93c-4,0 -41,11 -81,25c-40,14 -75,23 -78,21c-2,-2 8,-62 22,-132c17,-83 32,-131 42,-139c15,-11 15,-18 -7,-84c-14,-40 -28,-72 -32,-72c-4,1 -34,30 -66,65l-58,65l13,73c8,40 39,208 70,373l56,300l39,33c25,22 39,42 39,57c0,14 5,69 11,125l12,100l142,106l142,106l97,168l98,169l86,19c418,95 421,96 458,76c19,-10 34,-24 34,-32c0,-22 38,-89 63,-109c12,-10 31,-39 41,-66c23,-62 41,-79 80,-75c24,2 35,11 53,43c12,22 22,50 22,63c1,20 4,22 44,16c73,-9 87,-14 87,-28c0,-25 48,-66 78,-66c26,0 29,-3 24,-25c-2,-14 3,-36 12,-50c32,-49 109,-20 109,40c0,28 -28,65 -50,65c-7,0 -13,7 -13,16c0,13 7,15 31,10c17,-3 37,-6 43,-6c6,0 17,-9 24,-21c11,-17 11,-25 -2,-44c-23,-35 -20,-78 9,-109c50,-54 137,-19 139,58c1,18 8,41 15,50c12,14 16,14 43,-9c16,-14 38,-25 48,-25c26,0 30,-23 7,-35c-29,-15 -41,-38 -33,-69c13,-54 92,-50 103,6c3,17 12,28 22,28c9,0 26,7 39,15c16,12 26,13 42,5c24,-13 54,0 70,30c12,23 -1,65 -24,73c-21,8 -21,53 0,61c24,9 54,7 54,-3c0,-5 15,-29 33,-53c37,-48 37,-61 -5,-100c-57,-54 -24,-144 57,-155c55,-7 70,12 71,89c0,32 4,61 7,65c10,10 8,51 -2,58c-6,3 -1,20 10,40c13,21 18,42 14,55c-9,27 8,26 20,-2c14,-33 69,-37 85,-7c7,11 10,32 7,46c-5,26 -2,28 49,37c29,5 32,2 38,-24c10,-50 85,-53 94,-4c4,21 40,64 54,64c4,0 17,-9 29,-21c15,-15 27,-19 42,-14c12,4 41,8 63,9c23,1 48,7 56,14c12,10 18,9 28,-3c11,-13 10,-18 -8,-31c-31,-22 -29,-69 3,-90c23,-15 27,-15 51,1c24,16 27,16 46,-1c18,-17 22,-17 46,-3c15,8 29,23 31,34c4,22 32,46 44,38c11,-7 100,55 114,80c17,31 16,67 -3,89c-14,14 -14,21 -4,33c11,13 14,13 27,0c8,-8 23,-15 33,-15c14,0 21,-10 26,-37c17,-99 63,-109 136,-31c36,39 48,60 48,84c0,17 7,37 15,44c23,19 19,77 -6,90c-29,16 -62,8 -73,-16c-5,-11 -21,-25 -35,-31c-28,-10 -33,-3 -71,95c-25,65 -88,81 -134,36c-14,-15 -26,-37 -26,-50c0,-20 -5,-24 -32,-25c-110,-3 -161,-9 -172,-19c-10,-8 -15,-6 -20,6c-4,10 3,23 20,36c17,14 24,28 23,47c-3,27 25,90 45,103c17,12 26,9 26,-6c0,-8 12,-28 26,-45c36,-43 82,-43 119,1c19,22 26,40 23,59c-4,25 -2,27 22,22c19,-3 35,3 58,22c26,22 32,34 32,66c0,71 -73,114 -126,74c-12,-9 -31,-12 -52,-9c-21,4 -41,1 -57,-10c-19,-12 -30,-14 -44,-6c-24,12 -68,13 -75,1c-3,-5 -22,-9 -41,-8c-57,2 -81,-30 -89,-116c-6,-62 -4,-75 14,-99c11,-15 20,-30 20,-33c0,-3 -17,-5 -38,-5c-47,0 -75,-26 -93,-88c-8,-29 -16,-39 -23,-32c-5,5 -18,10 -27,10c-15,0 -17,6 -12,35c3,22 1,41 -7,50c-10,12 -10,19 -2,27c7,7 12,26 12,44c0,27 3,31 19,27c29,-7 89,15 106,40c48,69 -18,162 -95,135c-25,-8 -34,-7 -49,6c-10,9 -29,16 -43,16c-29,0 -78,-35 -78,-56c0,-19 -7,-18 -36,5l-25,19l41,23l40,23l0,68c0,67 1,68 21,57c12,-6 30,-9 40,-6c11,3 19,0 19,-8c0,-20 27,-37 48,-30c44,13 27,84 -17,72c-11,-3 -19,-1 -16,3c9,15 -13,57 -34,63c-11,2 -29,-2 -40,-10c-20,-14 -21,-13 -21,36c0,47 2,50 28,53c21,2 28,9 30,30c3,22 -2,30 -22,38c-35,13 -46,39 -53,130c-5,66 -10,83 -26,91c-18,10 -18,12 7,38c16,17 27,39 27,57c0,16 0,43 0,59c0,17 0,41 1,55c0,15 -12,35 -32,53c-38,34 -72,31 -107,-8c-18,-21 -21,-36 -21,-104c0,-52 4,-86 13,-98c18,-23 19,-49 1,-56c-7,-3 -21,-27 -30,-53c-14,-42 -14,-50 -1,-77c19,-39 19,-43 -2,-25c-23,19 -82,48 -100,48c-11,0 -11,4 -1,23c7,12 19,26 26,30c6,4 12,18 12,31c0,30 -15,41 -65,51c-50,10 -45,9 -77,25c-31,15 -58,1 -58,-29c0,-9 -10,-21 -22,-26c-25,-11 -34,-36 -23,-63c4,-9 8,-36 9,-60c1,-33 -2,-42 -14,-40c-8,2 -17,14 -18,28c-2,14 -11,33 -20,43c-12,13 -13,20 -4,29c17,17 15,49 -4,87c-19,39 -35,46 -64,31c-19,-10 -21,-17 -15,-56c7,-46 0,-84 -15,-84c-12,0 -42,59 -49,100c-5,27 -12,36 -29,38c-42,6 -69,-37 -40,-66c15,-15 21,-79 9,-100c-8,-14 -10,-10 -11,19c0,46 -40,89 -82,89c-37,0 -78,-40 -78,-76c0,-22 -2,-25 -15,-14c-20,16 -19,46 1,54c20,8 15,55 -8,70c-23,14 -52,-3 -56,-33c-6,-40 -37,-61 -90,-61c-26,0 -53,-5 -60,-12c-9,-9 -17,-7 -33,11c-13,13 -29,21 -40,18c-10,-3 -25,3 -35,14c-20,22 -45,24 -62,7c-18,-18 -15,-46 8,-65c25,-21 26,-33 3,-33c-10,0 -30,-6 -45,-14c-25,-13 -27,-12 -32,10c-9,35 -43,50 -66,29c-24,-22 -26,-97 -2,-117c25,-22 48,-28 61,-15c8,8 11,8 11,0c0,-7 -5,-15 -11,-19c-6,-3 -8,-20 -5,-38c8,-43 -3,-55 -57,-62c-53,-8 -61,4 -22,30c14,9 25,21 25,26c0,17 -31,39 -46,33c-13,-5 -15,-1 -9,16c15,47 -38,111 -90,111c-25,0 -75,-55 -75,-83c0,-14 6,-40 14,-58c7,-19 16,-50 19,-70c5,-34 4,-36 -19,-31c-14,3 -32,-2 -42,-12c-16,-13 -23,-14 -53,-4c-19,7 -36,14 -38,16c-3,1 17,25 45,53c45,46 47,50 22,44c-23,-6 -29,-3 -37,18c-16,42 -68,50 -101,15c-11,-12 -20,-30 -20,-39c0,-12 -6,-16 -21,-12c-12,4 -32,-3 -49,-15l-28,-21l-6,23c-3,14 -20,30 -41,40c-31,15 -37,15 -64,1c-37,-19 -44,-30 -51,-80c-4,-34 -8,-40 -30,-40c-21,0 -26,6 -31,39c-7,43 -21,56 -62,56c-19,0 -32,-8 -45,-28c-22,-36 -42,-30 -42,12c0,62 -63,100 -118,72c-34,-17 -42,-33 -42,-82c0,-25 8,-42 26,-59c15,-14 31,-25 35,-25c5,0 9,-4 9,-10c0,-5 -15,-10 -32,-10l-33,-1l35,-16l35,-15l-28,-10c-22,-8 -32,-7 -46,6c-10,9 -27,16 -39,16c-21,0 -55,-26 -63,-48c-3,-6 -24,-6 -64,1c-33,6 -61,11 -63,13c-2,1 8,13 22,27c31,31 35,90 9,119c-15,17 -15,18 11,18c36,0 76,41 76,78c0,16 7,43 16,60c33,67 -32,145 -103,122c-15,-4 -40,-11 -55,-14c-65,-14 -91,-98 -46,-146c12,-13 29,-38 38,-55c16,-32 16,-32 -7,-32c-13,0 -36,-11 -50,-24l-26,-24l17,33c11,22 15,44 11,63c-7,32 -48,69 -76,69c-10,0 -21,5 -24,11c-15,23 -54,28 -100,13c-54,-19 -75,-45 -75,-94c0,-39 26,-72 67,-84c13,-4 20,-13 17,-21c-3,-8 -12,-11 -19,-9c-17,7 -71,-21 -78,-41c-7,-17 -92,-21 -117,-5c-13,9 -13,10 1,10c8,0 26,11 38,24c51,54 15,146 -56,146c-64,0 -104,-72 -72,-132c12,-23 15,-24 -108,22c-61,23 -71,29 -47,30c54,0 92,60 74,115c-13,40 -46,58 -107,58c-68,0 -91,-10 -109,-45c-23,-43 -12,-81 41,-142c25,-29 45,-61 45,-70c0,-20 -16,-21 -24,-1c-9,24 -56,38 -83,26c-20,-9 -37,1 -150,87l-128,98l-36,134c-29,112 -34,143 -27,180c5,25 6,55 3,67c-5,24 3,53 15,53c4,0 11,-11 14,-24c8,-34 37,-42 58,-16c13,16 15,27 8,40c-13,25 9,70 36,70c31,0 58,34 50,64c-9,38 -41,51 -73,31c-18,-12 -28,-14 -36,-6c-6,6 -21,11 -34,11c-13,0 -23,5 -23,10c0,6 13,10 29,10c23,0 38,10 65,43c19,23 40,55 46,71c10,27 12,28 29,12c20,-18 66,-22 76,-5c5,7 12,6 23,-4c46,-40 105,-27 128,28c8,20 12,40 9,45c-3,5 4,12 16,15c18,6 48,-15 49,-36c0,-9 49,-29 71,-29c11,0 32,12 46,26c22,22 25,32 21,69c-5,40 -4,43 20,43c31,0 72,43 72,76c0,19 4,22 25,18c14,-2 36,3 49,11c22,15 28,15 64,-1c38,-16 39,-18 34,-57c-4,-37 -1,-44 28,-68c39,-34 74,-34 105,-2c21,20 25,21 25,7c0,-10 7,-28 16,-40c19,-28 74,-30 97,-4c23,25 21,78 -3,102c-23,23 -16,25 29,9c25,-9 31,-16 31,-39c0,-16 10,-41 23,-56c19,-22 34,-28 80,-32c62,-5 82,5 98,46c7,17 3,35 -11,68c-22,46 -48,64 -97,64c-50,0 -17,9 92,24c130,18 147,12 119,-42c-12,-24 -13,-40 -6,-60c5,-15 6,-37 1,-50c-5,-13 -4,-33 3,-50c6,-15 12,-49 12,-75c1,-40 6,-53 29,-73c38,-32 72,-31 108,5c38,39 39,83 2,120c-30,29 -32,60 -7,95c22,32 17,83 -9,110c-18,18 -22,28 -15,41c6,9 8,25 5,35c-4,15 1,18 25,18c16,-1 34,4 40,10c7,7 25,12 41,12c38,0 87,49 87,87c0,16 -7,38 -15,50c-15,21 -14,22 22,32c82,20 93,21 93,11c0,-24 49,-60 83,-60c40,0 66,25 76,72l7,33l164,36c91,19 178,39 193,43l28,7l-16,-32c-20,-38 -13,-72 20,-105c27,-26 71,-32 98,-11c10,7 23,29 30,49l13,36l119,-54c74,-34 128,-53 141,-49c13,3 28,-3 39,-15c40,-44 135,-7 135,53c0,19 9,26 50,41c28,10 52,17 54,15c1,-2 9,-19 16,-38c36,-90 105,-119 155,-65c14,15 25,33 25,40c0,17 -1,17 49,-1c23,-8 45,-14 49,-13c4,1 9,-9 12,-23c20,-98 139,-105 159,-9c6,32 9,34 44,33c20,0 37,3 37,6c0,4 -32,42 -71,84l-71,77l31,26c24,19 31,34 31,60c0,32 2,34 34,34c48,0 90,49 83,99c-2,20 2,58 10,85c17,57 12,76 -20,76c-13,0 -48,5 -79,11c-69,14 -89,41 -81,112c5,41 2,52 -17,72c-13,14 -34,25 -47,25c-13,0 -31,5 -41,11c-14,9 -32,4 -91,-25c-40,-21 -75,-35 -77,-33c-8,8 56,202 68,206c6,2 23,15 36,28c21,21 24,31 19,71c-4,32 -1,53 9,66c41,56 -6,143 -71,133c-37,-6 -38,-4 -50,64l-7,37l45,-5c39,-5 49,-2 72,21c21,21 26,34 23,68c-2,35 -9,46 -35,64c-28,19 -30,23 -16,36c16,17 17,15 -158,116c-25,14 -39,13 -168,-13c-78,-15 -141,-30 -141,-34c0,-3 7,-30 14,-58c15,-55 11,-68 -14,-52c-29,18 -71,10 -101,-20c-35,-35 -38,-77 -8,-115c24,-30 71,-35 106,-11c34,24 70,3 78,-48c7,-39 -2,-56 -32,-57c-19,0 -43,-41 -43,-73c0,-15 7,-38 15,-51c11,-17 13,-33 7,-61c-7,-35 -16,-44 -90,-90c-45,-28 -87,-56 -92,-61c-6,-6 -3,-34 9,-79c23,-80 15,-105 -34,-105c-17,0 -42,-8 -55,-17c-14,-10 -38,-16 -57,-14c-18,1 -45,-4 -60,-13c-15,-8 -39,-17 -53,-20c-42,-9 -61,-54 -54,-127c7,-69 39,-119 76,-119c10,0 18,-7 18,-16c0,-12 -5,-14 -17,-9c-48,20 -63,17 -96,-17c-23,-24 -50,-39 -97,-52c-77,-22 -140,-26 -140,-9c0,8 11,10 33,6c67,-10 115,64 82,127c-16,31 -16,31 4,21c56,-31 121,9 121,74c0,27 -8,44 -29,66c-32,32 -65,37 -97,14c-17,-11 -28,-12 -57,-3c-30,9 -40,8 -62,-6c-15,-10 -32,-30 -39,-46c-9,-22 -15,-27 -26,-20c-8,6 -26,10 -40,10c-23,0 -25,3 -22,38c6,66 -53,115 -112,92c-27,-10 -59,-61 -54,-87c2,-10 -6,-17 -21,-20c-29,-4 -61,-30 -61,-50c0,-11 -6,-10 -27,4c-40,24 -72,65 -73,90c0,27 -54,73 -86,73c-39,0 -74,-42 -74,-88c0,-21 5,-43 12,-50c16,-16 11,-88 -8,-118c-12,-18 -14,-36 -9,-76c4,-29 12,-59 17,-65c6,-7 7,-13 2,-13c-5,0 -99,-13 -209,-29l-200,-29l-155,26c-85,14 -156,26 -158,27c-7,5 21,61 44,88c19,23 25,39 22,63c-3,26 1,35 19,43c35,16 56,56 49,95c-8,40 -32,64 -74,72c-26,5 -36,1 -62,-25c-25,-24 -31,-38 -28,-63c2,-27 -2,-36 -26,-51c-15,-10 -30,-27 -33,-38c-4,-13 -14,-19 -33,-19c-15,0 -38,-9 -51,-19c-24,-19 -25,-19 -48,0c-84,68 -179,-54 -102,-131l28,-29l-31,-7c-17,-3 -69,-19 -116,-34c-132,-42 -140,-44 -140,-22c0,22 -30,52 -52,52c-19,0 -48,-32 -48,-53c0,-9 8,-25 19,-36c18,-18 18,-19 -17,-35c-34,-16 -35,-16 -60,6c-57,51 -92,92 -84,97c18,12 32,51 31,88c-1,27 27,102 96,263c53,124 110,258 127,298l30,72l102,0c57,0 105,-3 109,-6c3,-4 -4,-15 -16,-25c-18,-14 -20,-21 -11,-36c14,-23 53,-23 67,-1c9,13 7,22 -7,37c-18,20 -18,20 6,26c13,3 140,2 282,-2c275,-9 322,-4 386,35c41,26 50,27 50,8c0,-7 7,-19 15,-26c12,-10 22,-9 49,4c44,21 49,20 36,-5c-6,-11 -8,-34 -5,-50c5,-24 2,-36 -16,-55c-19,-20 -21,-27 -11,-49c16,-36 15,-38 -11,-20c-23,15 -61,17 -298,16c-83,-1 -119,-78 -57,-124c26,-20 30,-20 61,-5c20,9 39,13 48,8c8,-5 57,-11 109,-13c52,-3 96,-6 98,-6c1,-1 -2,-10 -8,-20c-21,-40 -12,-82 26,-117l35,-34l-29,6c-20,4 -39,0 -57,-12l-28,-18l9,24c23,71 -2,104 -84,106c-80,3 -105,-14 -100,-69c3,-34 0,-45 -18,-60c-49,-38 -35,-122 25,-147c38,-15 77,-6 120,29c33,27 35,28 63,12c26,-15 30,-15 56,0c27,15 30,15 56,-7c36,-31 80,-31 111,1c29,28 33,80 10,111c-9,12 -12,32 -8,55c3,20 1,39 -5,43c-7,4 -7,16 1,36c8,22 8,38 0,59c-6,17 -7,35 -2,42c5,8 9,29 9,47c0,26 -6,36 -32,52c-19,12 -27,20 -18,21c47,4 62,7 89,19c16,6 34,9 39,6c6,-3 20,2 32,12c19,16 22,24 16,56c-5,25 -14,40 -25,43c-10,3 -24,16 -30,29c-6,14 -19,24 -31,24c-14,0 -20,7 -20,23c0,13 -6,29 -12,35c-10,10 -10,15 2,22c27,17 40,11 40,-20c0,-22 6,-33 24,-41c38,-18 64,3 68,54c3,40 4,42 34,39c24,-3 33,2 42,22c13,29 23,32 51,15c18,-12 17,-38 -4,-106c-8,-25 28,-68 50,-59c9,3 15,-3 17,-16c4,-30 32,-45 52,-29c23,19 21,62 -4,68c-11,3 -20,13 -20,22c0,9 -3,27 -7,40l-6,23l36,-23c20,-13 37,-29 37,-36c0,-19 31,-45 48,-38c8,3 21,0 28,-6c9,-8 14,-8 14,-1c0,6 -5,14 -10,17c-6,4 -8,10 -5,15c9,14 -13,50 -30,50c-7,0 -34,29 -59,65l-46,66l28,9c15,6 36,15 46,21c80,46 109,59 135,59c35,0 81,48 81,86c0,20 5,24 28,24c67,0 100,94 51,146c-46,49 -139,14 -139,-53c0,-24 -4,-28 -30,-29c-17,-1 -39,-9 -49,-18c-10,-9 -25,-14 -34,-11c-8,4 -28,0 -45,-9c-26,-13 -37,-31 -56,-88c-6,-20 -60,-25 -71,-8c-3,6 0,10 8,10c25,0 57,45 57,81c0,43 -37,109 -71,128c-22,12 -31,13 -58,1c-34,-14 -66,-62 -57,-86c9,-24 -9,-8 -36,33c-19,28 -27,55 -30,100c-4,60 -4,61 16,47c30,-21 61,-17 95,12c24,20 31,34 31,61c0,62 -73,113 -119,84c-10,-6 -22,-5 -35,5c-11,8 -32,14 -46,14c-20,0 -30,10 -49,46c-13,25 -37,56 -53,70c-29,24 -40,28 -108,38c-34,6 -35,7 -32,45c3,34 0,42 -22,57c-34,22 -73,7 -89,-35l-10,-28l-71,27c-66,26 -158,66 -317,138l-66,30l-89,-49zm-674,-369c0,-5 -2,-10 -4,-10c-3,0 -8,5 -11,10c-3,6 -1,10 4,10c6,0 11,-4 11,-10zm-770,-380c-7,-12 -10,-32 -8,-44c3,-14 -6,-30 -27,-48c-29,-24 -34,-26 -52,-13c-18,13 -19,18 -9,49c9,29 15,35 35,33c16,-1 31,7 44,26c24,31 34,29 17,-3zm2170,-186c0,-18 -30,-33 -52,-25c-17,7 -19,10 -8,14c52,18 60,20 60,11zm-92,-13c18,-11 -10,-34 -32,-25c-19,7 -21,20 -3,27c18,8 21,8 35,-2zm-198,-31c0,-5 -10,-15 -22,-21c-23,-12 -23,-12 -4,10c21,23 26,26 26,11zm-112,-16c45,-15 50,-19 43,-38c-5,-11 -6,-27 -4,-33c6,-16 -33,-18 -42,-2c-4,5 -8,22 -10,36c-4,40 -42,56 -65,28c-7,-9 -9,-26 -5,-45c9,-39 -11,-40 -41,-2c-20,23 -25,25 -43,15c-12,-8 -29,-10 -41,-5c-50,19 30,58 126,61c18,1 54,-6 82,-15zm208,-33c-8,-12 -46,-21 -46,-11c0,9 18,18 38,19c7,1 11,-3 8,-8zm-1286,-126c0,-8 -2,-15 -4,-15c-2,0 -6,7 -10,15c-3,8 -1,15 4,15c6,0 10,-7 10,-15zm-170,-35c0,-14 -7,-20 -22,-20c-20,0 -21,1 -3,20c10,11 20,20 22,20c1,0 3,-9 3,-20zm-2150,-11c0,-6 -4,-7 -10,-4c-5,3 -10,11 -10,16c0,6 5,7 10,4c6,-3 10,-11 10,-16zm-248,-17c5,-17 2,-17 -18,-8c-20,10 -21,12 -6,18c9,4 18,7 18,7c1,1 4,-7 6,-17zm4175,3c8,-22 -6,-33 -17,-15c-13,20 -12,30 0,30c6,0 13,-7 17,-15zm-1656,-125c26,0 24,-28 -6,-72c-24,-35 -25,-43 -27,-219l-3,-183l-110,-33c-60,-18 -115,-31 -121,-29c-6,2 -98,79 -204,171c-106,92 -203,171 -214,176c-12,5 -94,26 -184,48c-89,21 -166,41 -169,45c-13,13 5,16 35,5c36,-12 87,8 97,40c3,11 25,27 49,36c37,14 57,15 142,6c200,-22 183,-17 181,-61c-2,-52 32,-90 80,-90c43,0 83,38 83,77c0,40 43,60 71,32c23,-23 81,-25 99,-4c7,8 28,15 48,15c40,0 82,32 82,62c0,19 1,19 26,-1c15,-12 35,-21 45,-21zm-2091,-80c9,-17 8,-20 -8,-20c-10,0 -23,-5 -28,-10c-13,-13 -56,1 -46,15c7,10 50,33 64,34c4,1 12,-8 18,-19zm3625,-60c3,-5 1,-10 -4,-10c-6,0 -11,5 -11,10c0,6 2,10 4,10c3,0 8,-4 11,-10zm534,-290c15,0 36,9 46,20c21,24 49,19 77,-14c23,-27 19,-68 -5,-72c-36,-5 -59,-36 -54,-70c6,-36 5,-37 -118,-50l-61,-6l-1,38c-1,28 -8,44 -28,61c-14,13 -32,23 -40,23c-11,0 -12,6 -3,30c5,17 7,37 4,46c-5,12 0,14 28,8c26,-4 38,-1 53,13c18,19 18,19 46,-4c16,-13 41,-23 56,-23zm-1229,-94c0,-3 -4,-8 -10,-11c-5,-3 -10,-1 -10,4c0,6 5,11 10,11c6,0 10,-2 10,-4zm-88,-502c-12,-8 -27,-12 -34,-8c-8,5 -6,10 8,15c35,14 50,10 26,-7zm-149,-50c5,-29 -9,-30 -40,-5c-31,26 -29,38 6,33c21,-3 30,-11 34,-28zm-1383,-354c11,0 11,-3 2,-12c-17,-17 -15,-58 5,-80c17,-19 11,-23 -29,-19c-9,1 -27,-4 -40,-12c-13,-8 -45,-20 -73,-26c-27,-7 -58,-14 -68,-17c-16,-5 -17,-3 -6,14c23,37 -15,77 -52,54c-33,-21 -30,5 5,40c29,29 37,32 57,24c13,-6 29,-16 34,-23c6,-7 27,-14 49,-16c47,-3 68,21 48,53c-9,15 -10,26 -1,41l11,21l22,-21c12,-12 29,-21 36,-21zm96,-19c-5,-8 -15,-6 -31,6c-17,14 -20,21 -12,31c8,11 14,9 30,-6c11,-11 16,-25 13,-31zm-501,-62c4,-6 13,-8 21,-5c8,3 14,1 14,-4c0,-6 -16,-10 -35,-10c-33,0 -43,8 -28,23c9,10 21,8 28,-4zm565,-157c0,-4 -11,-12 -25,-19c-29,-13 -32,-7 -9,18c15,17 34,17 34,1zm-35,-102c10,-11 13,-20 7,-20c-6,0 -16,9 -22,20c-6,11 -9,20 -7,20c2,0 12,-9 22,-20zm295,10c0,-5 -4,-10 -10,-10c-5,0 -10,5 -10,10c0,6 5,10 10,10c6,0 10,-4 10,-10zm3737,-350c16,-20 16,-27 -3,-34c-16,-6 -94,33 -94,47c0,13 85,2 97,-13zm-5147,-129c0,-8 -120,-24 -128,-17c-2,3 -1,9 3,15c7,13 125,15 125,2zm5716,-368c-4,-9 -1,-38 5,-65c11,-43 11,-50 -6,-68c-13,-15 -19,-34 -18,-63c2,-50 -23,-107 -47,-107c-13,0 -17,6 -13,19c6,25 -12,58 -38,66c-19,6 -18,9 15,33c37,26 47,60 23,80c-16,14 -82,9 -102,-8c-25,-20 -19,-66 13,-90c19,-15 21,-19 7,-14c-11,4 -33,8 -49,8c-20,1 -32,8 -39,24c-16,35 -48,37 -95,6c-49,-32 -59,-56 -38,-89c23,-35 53,-41 87,-16c28,21 29,21 48,2c17,-17 18,-21 5,-32c-8,-6 -14,-16 -14,-21c0,-6 -11,-23 -25,-40c-16,-19 -25,-42 -25,-64l0,-34l-54,0c-62,0 -69,8 -53,67c12,45 6,70 -20,80c-25,9 -42,35 -39,58c6,38 31,85 49,91c21,7 39,47 31,69c-5,11 1,15 19,15c14,0 35,10 47,23c23,23 23,23 86,8c59,-14 67,-13 99,2c20,9 44,17 54,17c11,0 32,14 48,30c31,33 49,39 39,13zm-698,-45c20,-24 48,-23 69,2c10,12 30,20 47,20c16,0 37,7 47,15c23,22 65,10 82,-24c13,-26 12,-28 -15,-44c-19,-11 -28,-24 -28,-42c0,-14 -6,-25 -13,-25c-9,0 -12,11 -9,35c8,65 -54,99 -98,55c-11,-11 -20,-30 -20,-43c0,-30 27,-67 48,-67c12,0 9,-4 -8,-13c-22,-11 -27,-11 -38,5c-26,36 -92,10 -92,-37c0,-14 -13,-33 -33,-47l-32,-25l-26,28c-35,38 -77,39 -113,2c-23,-23 -27,-34 -24,-67c3,-34 0,-44 -27,-68c-16,-15 -41,-27 -55,-27c-25,0 -25,0 5,16c42,23 54,42 55,86c0,30 -7,45 -29,66c-37,35 -24,60 29,54c20,-3 43,2 54,10c16,12 21,11 40,-8c23,-23 106,-42 127,-30c5,4 15,18 20,32c13,34 -12,73 -46,73c-15,0 -31,10 -41,25c-20,30 -22,27 47,65c48,26 54,27 58,12c1,-9 10,-25 19,-34zm-548,-160c68,-30 72,-31 104,-16c47,23 65,8 32,-25c-43,-44 -34,-120 18,-145c11,-6 15,-11 7,-11c-7,-1 -31,15 -53,35c-30,26 -46,34 -63,30c-20,-5 -29,5 -73,79c-28,47 -49,85 -47,85c3,0 37,-14 75,-32zm1345,-118c3,-4 -6,-7 -20,-6c-14,0 -25,6 -25,13c0,12 37,6 45,-7zm157,-42c7,-18 -2,-39 -13,-32c-5,3 -24,-4 -43,-15c-42,-27 -46,-26 -46,4c0,19 5,25 23,25c13,0 32,7 43,15c24,18 31,18 36,3zm-1006,-18c0,-12 -4,-16 -9,-11c-5,5 -6,14 -3,20c10,15 12,14 12,-9zm-98,-35c-6,-14 -14,-25 -18,-25c-11,0 -7,34 5,42c19,15 24,8 13,-17zm732,-51c0,-2 -7,-4 -15,-4c-8,0 -15,4 -15,10c0,5 7,7 15,4c8,-4 15,-8 15,-10zm835,-10c-10,-8 -29,-14 -42,-14c-24,0 -63,-32 -63,-51c0,-18 -30,-43 -41,-32c-12,12 61,93 85,93c9,0 19,6 22,14c3,8 15,11 31,8c25,-5 25,-6 8,-18zm-1720,-803c-8,-13 -35,-15 -35,-2c0,5 8,11 18,13c21,5 26,2 17,-11zm-95,-196c0,-20 -5,-25 -25,-25c-30,0 -33,16 -5,25c11,3 20,11 20,16c0,5 2,9 5,9c3,0 5,-11 5,-25zm-29,-205c31,-17 24,-59 -17,-94c-38,-33 -42,-47 -31,-128c5,-42 4,-43 -22,-26c-15,9 -16,15 -7,40c9,23 8,35 -5,57c-15,26 -15,35 -2,95c14,59 18,66 40,66c13,0 33,-5 44,-10zm1169,-120c0,-12 -12,-31 -26,-44c-33,-28 -35,-68 -4,-100c12,-14 17,-26 12,-30c-6,-3 -13,-19 -17,-35c-5,-23 -10,-27 -30,-23c-18,3 -33,-4 -55,-27c-31,-30 -31,-33 -25,-96c4,-36 5,-65 1,-65c-8,0 -106,61 -106,66c0,3 11,16 25,30c31,31 41,68 27,108c-5,17 -13,48 -16,68c-8,46 -49,81 -88,76c-24,-4 -26,-1 -26,24c1,15 6,28 12,29c6,0 72,9 146,19c177,24 170,24 170,0zm-736,-100c58,-67 82,-88 91,-80c9,7 16,6 25,-5c7,-9 29,-15 52,-15c71,0 119,72 88,131c-9,16 -7,19 8,19c10,0 24,-11 30,-25c7,-15 23,-28 40,-31c25,-5 27,-10 28,-47c0,-23 3,-49 7,-58c6,-12 0,-19 -22,-29c-26,-10 -35,-9 -63,7c-36,22 -122,30 -133,14c-5,-10 -32,-18 -107,-35c-27,-6 -27,-5 -26,39c1,57 -30,95 -75,95c-34,0 -131,-60 -148,-91c-6,-11 -9,-37 -7,-56l3,-36l-110,-23c-111,-23 -177,-30 -122,-14c43,13 137,112 140,146c2,22 10,32 38,45c45,21 67,68 50,105c-6,14 -11,27 -11,29c0,3 33,5 73,5l72,0l79,-90zm-6548,-7c-3,-3 -13,0 -21,7c-13,10 -13,15 -3,21c13,8 35,-17 24,-28zm5930,-108c0,-36 -1,-65 -2,-65c-2,0 -10,13 -19,30c-14,26 -14,32 2,65c9,19 17,35 17,35c1,0 1,-29 2,-65zm-508,-97c24,2 28,-8 11,-25c-21,-21 -13,-84 14,-111c32,-31 72,-32 127,-1c43,24 58,22 40,-8c-10,-15 -305,-183 -323,-183c-3,0 -4,6 -1,13c3,8 0,26 -5,40c-9,23 -8,27 8,27c16,0 19,12 25,88c4,48 9,106 12,130c6,42 7,43 38,36c17,-4 41,-7 54,-6zm-7230,-26c17,-16 27,-33 24,-39c-8,-11 -67,-15 -96,-6c-18,5 -18,6 -2,15c9,5 21,21 26,34c5,13 11,24 14,24c2,0 17,-13 34,-28zm9135,-8c-10,-16 -13,-35 -9,-54c3,-17 2,-30 -3,-30c-10,0 -20,76 -13,101c2,11 11,15 22,12c18,-5 18,-7 3,-29zm-1626,-60c-3,-3 -12,-4 -19,-1c-8,3 -5,6 6,6c11,1 17,-2 13,-5zm2253,-54c0,-5 -4,-10 -10,-10c-5,0 -10,5 -10,10c0,6 5,10 10,10c6,0 10,-4 10,-10zm-2813,-66l23,-6l-20,-25c-30,-39 -26,-89 9,-122l30,-28l-45,-21l-44,-22l0,69c0,78 10,161 19,161c3,0 16,-3 28,-6zm2873,-108c0,-3 -4,-8 -10,-11c-5,-3 -10,-1 -10,4c0,6 5,11 10,11c6,0 10,-2 10,-4zm-2875,-188c6,-19 24,-42 42,-54l33,-22l-46,-4c-51,-4 -50,-5 -59,65c-7,56 15,67 30,15zm3921,-3c-6,-19 -14,-35 -18,-35c-5,0 -8,16 -8,35c0,27 4,35 19,35c16,0 17,-4 7,-35zm-3536,-26c23,0 23,-1 5,-9c-11,-5 -37,-9 -59,-9c-34,-1 -37,1 -25,15c7,9 21,13 33,10c12,-3 32,-6 46,-7zm-6763,-55c-2,-3 -11,-2 -20,2c-16,6 -12,33 7,46c11,7 23,-39 13,-48zm6528,26c4,-6 -6,-10 -22,-10c-22,0 -25,2 -13,10c19,12 27,12 35,0zm4417,-60l33,-21l-35,3c-24,2 -36,9 -38,21c-4,22 0,21 40,-3zm-4587,-190c-3,-5 -11,-10 -16,-10c-6,0 -7,5 -4,10c3,6 11,10 16,10c6,0 7,-4 4,-10zm5090,-270c14,-16 16,-23 7,-32c-7,-7 -12,-23 -12,-37c-1,-20 -5,-15 -20,23c-25,65 -13,88 25,46z" fill="#ffffff" id="svg_4"/>
   <path d="m5097,10730c-64,-50 -27,-160 53,-160c33,0 80,53 80,90c0,39 -47,90 -83,90c-13,0 -36,-9 -50,-20z" fill="#ffffff" id="svg_5"/>
   <path d="m7560,10705c-51,-54 -15,-145 57,-145c47,0 83,37 83,85c0,76 -89,114 -140,60z" fill="#ffffff" id="svg_6"/>
   <path d="m7981,10556c-8,-10 -24,-12 -52,-9c-29,4 -44,1 -59,-12c-16,-14 -22,-15 -35,-5c-9,8 -28,10 -52,6c-21,-3 -52,-6 -69,-6c-54,1 -80,-35 -88,-120c-7,-64 -5,-77 12,-99c39,-54 130,-32 146,35c9,34 38,30 56,-9c19,-40 57,-62 94,-53c32,8 68,62 63,94c-4,19 0,22 30,22c72,0 109,85 62,144c-16,20 -29,26 -59,26c-20,0 -43,-6 -49,-14z" fill="#ffffff" id="svg_7"/>
   <path d="m4875,10494c-21,-22 -16,-73 10,-90c49,-32 99,43 59,87c-21,23 -47,24 -69,3z" fill="#ffffff" id="svg_8"/>
   <path d="m4666,10484c-34,-33 -9,-94 38,-94c29,0 49,22 49,55c0,50 -53,74 -87,39z" fill="#ffffff" id="svg_9"/>
   <path d="m2729,10211c-20,-20 -29,-39 -29,-61c0,-39 47,-90 83,-90c34,0 74,34 82,70c7,33 -7,67 -39,92c-31,26 -64,22 -97,-11z" fill="#ffffff" id="svg_10"/>
   <path d="m8125,10108c-24,-22 -38,-45 -42,-70c-5,-32 -1,-41 25,-68c42,-42 75,-40 123,9c49,49 53,94 13,135c-37,36 -75,34 -119,-6z" fill="#ffffff" id="svg_11"/>
   <path d="m2742,10003c-21,-8 -33,-50 -22,-77c12,-32 45,-42 75,-22c57,37 9,124 -53,99z" fill="#ffffff" id="svg_12"/>
   <path d="m7842,9928c-28,-28 -3,-88 37,-88c10,0 26,9 36,20c27,30 10,74 -30,78c-17,2 -36,-3 -43,-10z" fill="#ffffff" id="svg_13"/>
   <path d="m2983,9804c-15,-24 -15,-29 -2,-53c18,-32 54,-39 80,-15c37,34 14,94 -36,94c-15,0 -31,-10 -42,-26z" fill="#ffffff" id="svg_14"/>
   <path d="m7526,9736c-37,-37 -14,-92 34,-83c20,4 28,1 35,-16c12,-26 44,-29 59,-4c14,22 -3,52 -30,52c-12,0 -21,9 -24,24c-3,13 -15,30 -27,38c-20,14 -24,13 -47,-11z" fill="#ffffff" id="svg_15"/>
   <path d="m6539,9625c-74,-41 -47,-166 35,-165c74,1 113,89 64,144c-29,32 -66,40 -99,21z" fill="#ffffff" id="svg_16"/>
   <path d="m6781,9606c-15,-17 -7,-52 14,-60c8,-3 24,3 37,14c19,15 21,22 12,37c-14,23 -47,28 -63,9z" fill="#ffffff" id="svg_17"/>
   <path d="m6987,9594c-14,-14 -7,-53 12,-63c26,-14 54,8 49,40c-2,17 -10,25 -28,27c-14,2 -29,0 -33,-4z" fill="#ffffff" id="svg_18"/>
   <path d="m8240,9547c-28,-14 -50,-51 -50,-85c0,-33 52,-82 87,-82c87,0 113,124 34,165c-36,18 -39,18 -71,2z" fill="#ffffff" id="svg_19"/>
   <path d="m7720,9510c-27,-27 -25,-56 5,-85c28,-29 42,-31 73,-9c15,10 22,25 22,48c0,59 -59,87 -100,46z" fill="#ffffff" id="svg_20"/>
   <path d="m6362,9453c-7,-3 -19,-18 -28,-35c-23,-45 -11,-94 29,-119c55,-34 112,-5 124,64c5,31 1,40 -25,67c-29,29 -65,37 -100,23z" fill="#ffffff" id="svg_21"/>
   <path d="m3302,9328c-28,-28 -4,-98 34,-98c33,0 54,21 54,53c0,40 -15,57 -50,57c-14,0 -31,-5 -38,-12z" fill="#ffffff" id="svg_22"/>
   <path d="m3662,9268c-6,-8 -15,-26 -21,-41c-6,-15 -15,-27 -20,-27c-19,0 -43,-61 -36,-89c20,-82 115,-97 153,-24c15,27 15,66 1,80c-8,8 -7,16 2,31c21,34 1,76 -37,80c-17,2 -36,-3 -42,-10z" fill="#ffffff" id="svg_23"/>
   <path d="m6061,9214c-37,-48 -28,-87 34,-149c52,-53 57,-55 107,-55c29,0 66,-1 81,-2c71,-2 100,100 42,149c-24,21 -36,24 -69,20c-37,-5 -44,-2 -72,29c-41,44 -92,48 -123,8z" fill="#ffffff" id="svg_24"/>
   <path d="m4155,9094c-27,-29 -32,-63 -13,-97c30,-57 92,-64 132,-16c30,35 32,58 11,98c-25,50 -91,57 -130,15z" fill="#ffffff" id="svg_25"/>
   <path d="m9614,8724c-45,-47 -46,-93 -5,-135c16,-16 38,-29 48,-29c29,0 81,37 98,69c21,42 19,65 -11,100c-38,45 -85,43 -130,-5z" fill="#ffffff" id="svg_26"/>
   <path d="m4154,8500c-30,-12 -54,-49 -54,-83c0,-39 49,-87 88,-87c34,0 82,48 82,81c0,32 -26,74 -55,87c-30,14 -32,14 -61,2z" fill="#ffffff" id="svg_27"/>
   <path d="m5048,8444c-3,-3 -21,-7 -39,-9c-72,-9 -105,-100 -54,-150c40,-41 80,-34 132,22c48,53 57,97 25,126c-18,17 -53,23 -64,11z" fill="#ffffff" id="svg_28"/>
   <path d="m7640,8332c-34,-10 -70,-56 -70,-88c0,-33 37,-74 66,-74c26,0 84,61 84,89c0,48 -41,85 -80,73z" fill="#ffffff" id="svg_29"/>
   <path d="m6851,8234c-46,-59 -10,-144 62,-144c45,0 77,34 77,84c0,77 -94,118 -139,60z" fill="#ffffff" id="svg_30"/>
   <path d="m2664,8240c-56,-22 -72,-103 -29,-145c52,-53 135,-15 135,63c0,58 -56,102 -106,82z" fill="#ffffff" id="svg_31"/>
   <path d="m6504,8235c-34,-14 -59,-62 -49,-94c5,-17 2,-21 -15,-21c-11,0 -32,-11 -46,-25c-14,-14 -34,-25 -45,-25c-11,0 -31,-11 -44,-25c-63,-62 2,-173 83,-144c17,6 33,16 35,23c3,8 22,17 41,20c44,8 70,44 69,92c-1,26 3,34 17,34c52,0 88,86 57,134c-23,34 -66,47 -103,31z" fill="#ffffff" id="svg_32"/>
   <path d="m6093,8135c-24,-16 -39,-71 -29,-102c3,-10 22,-35 42,-57l35,-38l-22,-24c-52,-55 -13,-144 62,-144c73,0 105,89 53,145c-25,27 -25,28 -5,41c24,17 35,62 22,96c-5,13 -25,41 -44,61c-38,41 -77,48 -114,22z" fill="#ffffff" id="svg_33"/>
   <path d="m6694,8120c-29,-11 -64,-70 -64,-106c0,-62 59,-105 112,-83c36,15 68,67 68,112c0,27 -7,41 -31,61c-32,27 -50,30 -85,16z" fill="#ffffff" id="svg_34"/>
   <path d="m2029,7980c-23,-14 -42,-65 -35,-95c9,-36 45,-65 81,-65c36,0 72,29 81,65c8,31 -12,82 -37,95c-22,13 -69,12 -90,0z" fill="#ffffff" id="svg_35"/>
   <path d="m7232,7750c-41,-38 -40,-92 1,-130c50,-47 137,-5 137,65c0,71 -87,112 -138,65z" fill="#ffffff" id="svg_36"/>
   <path d="m8656,7714c-21,-21 -20,-37 3,-58c24,-22 57,-14 66,15c4,13 0,28 -11,40c-21,23 -37,24 -58,3z" fill="#ffffff" id="svg_37"/>
   <path d="m2100,7670c-29,-55 30,-105 73,-62c17,18 19,26 11,49c-13,37 -67,45 -84,13z" fill="#ffffff" id="svg_38"/>
   <path d="m6529,7651c-38,-39 -40,-88 -3,-125c45,-44 105,-31 130,30c13,31 13,39 -1,68c-15,32 -50,56 -81,56c-9,0 -29,-13 -45,-29z" fill="#ffffff" id="svg_39"/>
   <path d="m9840,7586c-16,-20 -9,-56 13,-70c39,-24 79,44 41,71c-23,17 -39,16 -54,-1z" fill="#ffffff" id="svg_40"/>
   <path d="m9992,7548c-7,-7 -12,-24 -12,-38c0,-53 57,-69 86,-25c15,23 15,27 0,50c-18,27 -54,33 -74,13z" fill="#ffffff" id="svg_41"/>
   <path d="m10183,7460c-30,-12 -38,-46 -19,-75c19,-29 47,-32 71,-9c36,36 -5,102 -52,84z" fill="#ffffff" id="svg_42"/>
   <path d="m9988,7429c-18,-10 -43,-83 -33,-99c3,-5 1,-11 -5,-15c-19,-11 -11,-63 12,-79c12,-8 24,-13 28,-11c9,5 33,-63 26,-74c-11,-18 17,-72 45,-87c84,-43 160,72 93,140c-15,14 -36,26 -48,26c-72,0 -107,70 -60,121c29,31 30,43 4,69c-22,22 -37,24 -62,9z" fill="#ffffff" id="svg_43"/>
   <path d="m10100,7290c-8,-15 -6,-24 10,-40c16,-16 25,-18 40,-10c22,12 26,40 8,58c-18,18 -46,14 -58,-8z" fill="#ffffff" id="svg_44"/>
   <path d="m3493,7078c-12,-6 -29,-26 -38,-44c-14,-29 -14,-37 -1,-68c25,-61 85,-74 130,-30c65,65 -10,182 -91,142z" fill="#ffffff" id="svg_45"/>
   <path d="m2900,6945c-33,-36 -32,-87 2,-122c36,-36 83,-36 115,1c71,83 -42,201 -117,121z" fill="#ffffff" id="svg_46"/>
   <path d="m3446,6849c-30,-35 -32,-58 -11,-98c29,-57 103,-61 139,-9c38,53 -5,138 -69,138c-25,0 -40,-8 -59,-31z" fill="#ffffff" id="svg_47"/>
   <path d="m10664,6855c-14,-21 -15,-31 -5,-51c6,-14 11,-33 11,-43c0,-22 30,-51 53,-51c34,0 50,30 42,83c-9,69 -20,87 -55,87c-21,0 -35,-8 -46,-25z" fill="#ffffff" id="svg_48"/>
   <path d="m6227,6522c-38,-42 -11,-105 43,-105c38,0 60,23 60,63c0,53 -69,80 -103,42z" fill="#ffffff" id="svg_49"/>
   <path d="m10516,6409c-46,-36 -27,-109 28,-109c12,0 27,5 34,12c9,9 12,9 12,0c0,-6 11,-19 25,-28c23,-15 27,-15 50,0c34,22 34,69 1,91c-14,9 -30,15 -38,13c-7,-2 -23,7 -36,20c-27,27 -42,28 -76,1z" fill="#ffffff" id="svg_50"/>
   <path d="m10532,6104c-17,-12 -22,-25 -22,-63c0,-52 12,-71 46,-71c32,0 44,21 41,75c-3,60 -29,84 -65,59z" fill="#ffffff" id="svg_51"/>
   <path d="m9166,6011c-21,-23 -14,-56 15,-71c41,-23 80,29 52,69c-18,26 -45,27 -67,2z" fill="#ffffff" id="svg_52"/>
   <path d="m8782,5968c-7,-7 -12,-24 -12,-38c0,-52 48,-68 76,-25c15,23 15,27 0,50c-18,27 -45,32 -64,13z" fill="#ffffff" id="svg_53"/>
   <path d="m2466,5504c-37,-37 -35,-86 3,-125c33,-33 50,-35 90,-14c40,20 55,66 37,110c-25,60 -85,73 -130,29z" fill="#ffffff" id="svg_54"/>
   <path d="m3186,5464c-37,-37 -35,-86 3,-125c33,-33 50,-35 91,-14c40,21 57,73 35,114c-29,57 -86,68 -129,25z" fill="#ffffff" id="svg_55"/>
   <path d="m10948,5479c-10,-5 -18,-19 -18,-29c0,-11 -7,-20 -15,-20c-8,0 -23,-4 -33,-9c-9,-5 -25,-12 -34,-15c-43,-13 -39,-86 4,-86c51,0 98,20 104,45c3,14 12,25 19,25c20,0 45,28 45,50c0,21 -25,50 -43,50c-7,0 -20,-5 -29,-11z" fill="#ffffff" id="svg_56"/>
   <path d="m1782,5403c-48,-41 -23,-113 38,-113c55,0 79,71 38,110c-27,25 -49,25 -76,3z" fill="#ffffff" id="svg_57"/>
   <path d="m11026,5381c-22,-24 -17,-59 10,-78c42,-27 98,49 62,85c-18,18 -53,14 -72,-7z" fill="#ffffff" id="svg_58"/>
   <path d="m1615,5236c-22,-33 -13,-70 21,-92c50,-34 109,27 82,84c-10,21 -22,28 -50,30c-30,3 -40,-1 -53,-22z" fill="#ffffff" id="svg_59"/>
   <path d="m1432,5218c-7,-7 -12,-21 -12,-33c0,-47 62,-63 81,-21c22,47 -33,90 -69,54z" fill="#ffffff" id="svg_60"/>
   <path d="m1271,5196c-9,-11 -10,-20 -1,-36c13,-24 38,-23 53,1c23,37 -25,68 -52,35z" fill="#ffffff" id="svg_61"/>
   <path d="m1005,5186c-20,-15 -17,-44 7,-59c12,-8 21,-7 32,2c36,30 -1,85 -39,57z" fill="#ffffff" id="svg_62"/>
   <path d="m772,5160c-49,-20 -48,-99 3,-122c22,-10 30,-8 53,9c39,29 41,74 6,102c-30,23 -30,23 -62,11z" fill="#ffffff" id="svg_63"/>
   <path d="m502,5134c-39,-27 -23,-84 24,-84c46,0 59,60 19,86c-18,12 -24,11 -43,-2z" fill="#ffffff" id="svg_64"/>
   <path d="m10386,5134c-9,-8 -16,-24 -16,-34c0,-39 52,-64 78,-38c26,26 3,88 -33,88c-7,0 -21,-7 -29,-16z" fill="#ffffff" id="svg_65"/>
   <path d="m10139,5055c-74,-41 -47,-166 35,-165c74,1 113,89 64,144c-29,32 -66,40 -99,21z" fill="#ffffff" id="svg_66"/>
   <path d="m100,4640c-25,-25 -26,-72 -2,-93c41,-37 102,-9 102,46c0,32 -32,67 -60,67c-11,0 -29,-9 -40,-20z" fill="#ffffff" id="svg_67"/>
   <path d="m11851,4564c-12,-15 -21,-41 -21,-59c0,-50 33,-85 80,-85c47,0 80,35 80,85c0,50 -33,85 -80,85c-30,0 -43,-6 -59,-26z" fill="#ffffff" id="svg_68"/>
   <path d="m130,4270c-27,-27 -35,-65 -20,-101c40,-95 186,-38 155,61c-18,56 -95,80 -135,40z" fill="#ffffff" id="svg_69"/>
   <path d="m1545,4245c-38,-37 -35,-95 6,-129c17,-14 39,-26 49,-26c10,0 32,12 49,26c25,21 31,33 31,65c0,50 -35,89 -80,89c-19,0 -40,-9 -55,-25z" fill="#ffffff" id="svg_70"/>
   <path d="m3525,4220c-4,-6 -21,-8 -40,-4c-26,4 -38,1 -54,-15c-26,-26 -27,-72 -3,-94c20,-18 67,-23 77,-8c3,5 21,7 39,4c63,-10 101,62 56,107c-21,21 -65,27 -75,10z" fill="#ffffff" id="svg_71"/>
   <path d="m4691,4106c-51,-54 -15,-146 56,-146c72,0 108,85 62,144c-28,35 -86,36 -118,2z" fill="#ffffff" id="svg_72"/>
   <path d="m3594,4066c-21,-33 -15,-65 18,-89c23,-17 31,-19 53,-9c32,15 46,49 33,82c-11,31 -25,40 -60,40c-18,0 -33,-8 -44,-24z" fill="#ffffff" id="svg_73"/>
   <path d="m745,4015c-31,-30 -33,-82 -4,-119c27,-35 86,-36 117,-3c49,52 12,147 -58,147c-19,0 -40,-9 -55,-25z" fill="#ffffff" id="svg_74"/>
   <path d="m4677,3910c-64,-50 -27,-160 53,-160c33,0 80,53 80,90c0,39 -47,90 -83,90c-13,0 -36,-9 -50,-20z" fill="#ffffff" id="svg_75"/>
   <path d="m9512,3679c-53,-20 -51,-99 4,-119c52,-20 98,35 72,86c-15,32 -44,45 -76,33z" fill="#ffffff" id="svg_76"/>
   <path d="m8282,3654c-45,-31 -19,-114 36,-114c27,0 62,33 62,59c0,25 -38,71 -59,71c-9,0 -27,-7 -39,-16z" fill="#ffffff" id="svg_77"/>
   <path d="m8427,3632c-10,-10 -17,-31 -17,-45c0,-29 31,-67 54,-67c24,0 66,41 66,64c0,57 -67,88 -103,48z" fill="#ffffff" id="svg_78"/>
  </g>
 </g>
</svg>